<mxfile host="Electron" modified="2024-05-20T12:05:35.869Z" agent="Mozilla/5.0 (Windows NT 10.0; Win64; x64) AppleWebKit/537.36 (KHTML, like Gecko) draw.io/23.1.5 Chrome/120.0.6099.109 Electron/28.1.0 Safari/537.36" etag="dY7B9PYbQi-ukKM8WczS" version="23.1.5" type="device">
  <diagram name="Page-1" id="RGUCVbJrUAb8gim7gf6H">
    <mxGraphModel dx="1167" dy="690" grid="1" gridSize="10" guides="1" tooltips="1" connect="1" arrows="1" fold="1" page="1" pageScale="1" pageWidth="827" pageHeight="1169" math="0" shadow="0">
      <root>
        <mxCell id="0" />
        <mxCell id="1" parent="0" />
        <mxCell id="bLym4JKj9HbBcu2B3I5p-2" value="cbi:CognitiveBias" style="rounded=1;arcSize=10;whiteSpace=wrap;html=1;align=center;fillColor=#f0a30a;strokeColor=#BD7000;fontColor=#000000;" parent="1" vertex="1">
          <mxGeometry x="40" y="360" width="150" height="50" as="geometry" />
        </mxCell>
        <mxCell id="bLym4JKj9HbBcu2B3I5p-12" value="cbi:hasStimulus" style="edgeStyle=orthogonalEdgeStyle;rounded=0;orthogonalLoop=1;jettySize=auto;html=1;exitX=1;exitY=0.5;exitDx=0;exitDy=0;" parent="1" source="bLym4JKj9HbBcu2B3I5p-3" target="bLym4JKj9HbBcu2B3I5p-4" edge="1">
          <mxGeometry relative="1" as="geometry" />
        </mxCell>
        <mxCell id="bLym4JKj9HbBcu2B3I5p-13" value="rdfs:subClassOf" style="edgeStyle=orthogonalEdgeStyle;rounded=0;orthogonalLoop=1;jettySize=auto;html=1;" parent="1" source="bLym4JKj9HbBcu2B3I5p-3" target="bLym4JKj9HbBcu2B3I5p-2" edge="1">
          <mxGeometry x="0.0604" relative="1" as="geometry">
            <Array as="points">
              <mxPoint x="260" y="385" />
              <mxPoint x="260" y="385" />
            </Array>
            <mxPoint as="offset" />
          </mxGeometry>
        </mxCell>
        <mxCell id="bLym4JKj9HbBcu2B3I5p-3" value="cbi:MereExposureEffect" style="rounded=1;arcSize=10;whiteSpace=wrap;html=1;align=center;fillColor=#f0a30a;strokeColor=#BD7000;fontColor=#000000;" parent="1" vertex="1">
          <mxGeometry x="339" y="360" width="150" height="50" as="geometry" />
        </mxCell>
        <mxCell id="bLym4JKj9HbBcu2B3I5p-14" value="parameter:hasParameter" style="edgeStyle=orthogonalEdgeStyle;rounded=0;orthogonalLoop=1;jettySize=auto;html=1;exitX=0.5;exitY=0;exitDx=0;exitDy=0;" parent="1" source="bLym4JKj9HbBcu2B3I5p-4" target="bLym4JKj9HbBcu2B3I5p-8" edge="1">
          <mxGeometry relative="1" as="geometry" />
        </mxCell>
        <mxCell id="bLym4JKj9HbBcu2B3I5p-4" value="emotion:Stimulus" style="rounded=1;arcSize=10;whiteSpace=wrap;html=1;align=center;fillColor=#f0a30a;strokeColor=#BD7000;fontColor=#000000;" parent="1" vertex="1">
          <mxGeometry x="620" y="360" width="150" height="50" as="geometry" />
        </mxCell>
        <mxCell id="bLym4JKj9HbBcu2B3I5p-17" value="cbi:affectedBy" style="edgeStyle=orthogonalEdgeStyle;rounded=0;orthogonalLoop=1;jettySize=auto;html=1;" parent="1" source="bLym4JKj9HbBcu2B3I5p-5" target="bLym4JKj9HbBcu2B3I5p-10" edge="1">
          <mxGeometry relative="1" as="geometry" />
        </mxCell>
        <mxCell id="bLym4JKj9HbBcu2B3I5p-5" value="fs:Preference" style="rounded=1;arcSize=10;whiteSpace=wrap;html=1;align=center;fillColor=#f0a30a;strokeColor=#BD7000;fontColor=#000000;" parent="1" vertex="1">
          <mxGeometry x="40" y="90" width="150" height="50" as="geometry" />
        </mxCell>
        <mxCell id="bLym4JKj9HbBcu2B3I5p-16" value="reaction:hasOutcome" style="edgeStyle=orthogonalEdgeStyle;rounded=0;orthogonalLoop=1;jettySize=auto;html=1;entryX=0.207;entryY=0;entryDx=0;entryDy=0;entryPerimeter=0;" parent="1" source="bLym4JKj9HbBcu2B3I5p-6" target="bLym4JKj9HbBcu2B3I5p-3" edge="1">
          <mxGeometry relative="1" as="geometry">
            <Array as="points">
              <mxPoint x="115" y="340" />
              <mxPoint x="370" y="340" />
            </Array>
          </mxGeometry>
        </mxCell>
        <mxCell id="bLym4JKj9HbBcu2B3I5p-18" value="cbi:changes" style="edgeStyle=orthogonalEdgeStyle;rounded=0;orthogonalLoop=1;jettySize=auto;html=1;" parent="1" source="bLym4JKj9HbBcu2B3I5p-6" target="bLym4JKj9HbBcu2B3I5p-5" edge="1">
          <mxGeometry relative="1" as="geometry" />
        </mxCell>
        <mxCell id="bLym4JKj9HbBcu2B3I5p-6" value="cbi:ExposureContext" style="rounded=1;arcSize=10;whiteSpace=wrap;html=1;align=center;fillColor=#f0a30a;strokeColor=#BD7000;fontColor=#000000;" parent="1" vertex="1">
          <mxGeometry x="40" y="220" width="150" height="50" as="geometry" />
        </mxCell>
        <mxCell id="bLym4JKj9HbBcu2B3I5p-8" value="fs:Frequency" style="rounded=1;arcSize=10;whiteSpace=wrap;html=1;align=center;fillColor=#f0a30a;strokeColor=#BD7000;fontColor=#000000;" parent="1" vertex="1">
          <mxGeometry x="620" y="230" width="150" height="50" as="geometry" />
        </mxCell>
        <mxCell id="bLym4JKj9HbBcu2B3I5p-10" value="cbi:InfluencingFactors" style="rounded=1;arcSize=10;whiteSpace=wrap;html=1;align=center;fillColor=#f0a30a;strokeColor=#BD7000;fontColor=#000000;" parent="1" vertex="1">
          <mxGeometry x="339" y="90" width="150" height="50" as="geometry" />
        </mxCell>
        <mxCell id="aolPlXktrZjBJs02nv2U-1" value="&lt;p style=&quot;text-align: center; margin: 4px 0px 0px; text-decoration: underline; font-size: 10px;&quot;&gt;&lt;b style=&quot;&quot;&gt;&lt;font style=&quot;font-size: 10px;&quot;&gt;Prefixes&lt;/font&gt;&lt;/b&gt;&lt;/p&gt;&lt;hr style=&quot;font-size: 10px;&quot;&gt;&lt;div style=&quot;font-size: 10px;&quot;&gt;&lt;font style=&quot;font-size: 10px;&quot;&gt;&lt;span style=&quot;background-color: initial;&quot;&gt;&lt;font style=&quot;font-size: 10px;&quot;&gt;&amp;nbsp;&amp;nbsp;&lt;/font&gt;&lt;/span&gt;&lt;span style=&quot;background-color: initial;&quot;&gt;fs:&amp;nbsp;&lt;/span&gt;&lt;a href=&quot;https://w3id.org/framester/data/framestercore/Preference&quot; class=&quot;iri&quot; style=&quot;background: transparent; margin: 0px 8px 8px 0px; padding: 0px; vertical-align: baseline; display: inline-block;&quot;&gt;&lt;font style=&quot;font-size: 10px;&quot; color=&quot;#000000&quot;&gt;https://w3id.org/framester/data/framestercore&lt;/font&gt;&lt;/a&gt;&lt;/font&gt;&lt;/div&gt;&lt;font style=&quot;font-size: 10px;&quot;&gt;&amp;nbsp; cbi: https://github.com/ranacoskun/cognitive_bias_ontology&lt;br&gt;&lt;/font&gt;&lt;p style=&quot;margin: 0px 0px 0px 8px; font-size: 10px;&quot;&gt;&lt;font style=&quot;font-size: 10px;&quot;&gt;rdfs: https://www.w3.org/2000/01/rdf-schema#&lt;/font&gt;&lt;/p&gt;&lt;p style=&quot;margin: 0px 0px 0px 8px; font-size: 10px;&quot;&gt;&lt;font style=&quot;font-size: 10px;&quot;&gt;&lt;span style=&quot;background-color: initial;&quot;&gt;classification:&amp;nbsp;http://www.ontologydesignpatterns.org/cp/owl/classification.owl&amp;nbsp;&lt;/span&gt;&lt;/font&gt;&lt;/p&gt;&lt;p style=&quot;margin: 0px 0px 0px 8px; font-size: 10px;&quot;&gt;&lt;font style=&quot;font-size: 10px;&quot;&gt;reaction: http://www.ontologydesignpatterns.org/cp/owl/reaction.owl&lt;/font&gt;&lt;/p&gt;&lt;p style=&quot;margin: 0px 0px 0px 8px; font-size: 10px;&quot;&gt;&lt;font style=&quot;font-size: 10px;&quot;&gt;parameter:&amp;nbsp;&lt;font style=&quot;font-size: 10px;&quot;&gt;&lt;a style=&quot;font-family: sans-serif; text-decoration-line: none; background-image: none; background-position: initial; background-size: initial; background-repeat: initial; background-attachment: initial; background-origin: initial; background-clip: initial;&quot; href=&quot;http://ontologydesignpatterns.org/wiki/index.php?title=Special:ClickHandler&amp;amp;link=http://ontologydesignpatterns.org/cp/owl/parameter.owl&amp;amp;message=OWL%20building%20block&amp;amp;from_page_id=2202&amp;amp;update=&quot;&gt;http://ontologydesignpatterns.org/cp/owl/parameter.owl&lt;/a&gt;&lt;span style=&quot;background-color: initial;&quot;&gt;&amp;nbsp;&lt;/span&gt;&lt;/font&gt;&lt;/font&gt;&lt;/p&gt;&lt;p style=&quot;margin: 0px 0px 0px 8px; font-size: 10px;&quot;&gt;&lt;/p&gt;&lt;table style=&quot;background-color: white; width: 1285.57px; margin: auto; border-collapse: collapse; font-family: sans-serif; font-size: 10px;&quot; class=&quot;contentOPTemplate&quot;&gt;&lt;tbody&gt;&lt;tr&gt;&lt;td style=&quot;vertical-align: top; width: 1026.45px;&quot;&gt;&lt;font style=&quot;font-size: 10px;&quot;&gt;&amp;nbsp; &amp;nbsp;participation:&amp;nbsp;&lt;a style=&quot;text-decoration-line: none; color: rgb(0, 43, 184); background: none;&quot; href=&quot;http://ontologydesignpatterns.org/wiki/index.php?title=Special:ClickHandler&amp;amp;link=http://ontologydesignpatterns.org/cp/owl/participation.owl&amp;amp;message=OWL%20building%20block&amp;amp;from_page_id=434&amp;amp;update=&quot;&gt;&lt;font style=&quot;font-size: 10px;&quot;&gt;http://ontologydesignpatterns.org/cp/owl/participation.owl&lt;/font&gt;&lt;/a&gt;&lt;/font&gt;&lt;/td&gt;&lt;/tr&gt;&lt;/tbody&gt;&lt;/table&gt;&lt;p style=&quot;margin: 0px 0px 0px 8px; font-size: 10px;&quot;&gt;&lt;font style=&quot;font-size: 10px;&quot;&gt;emotion:&amp;nbsp;&lt;span style=&quot;background-color: initial;&quot;&gt;http://ns.inria.fr/emoca/&lt;/span&gt;&lt;/font&gt;&lt;/p&gt;" style="verticalAlign=top;align=left;overflow=fill;html=1;whiteSpace=wrap;" parent="1" vertex="1">
          <mxGeometry x="420" y="430" width="360" height="140" as="geometry" />
        </mxCell>
        <mxCell id="aolPlXktrZjBJs02nv2U-2" value="fs:People" style="rounded=1;arcSize=10;whiteSpace=wrap;html=1;align=center;fillColor=#f0a30a;strokeColor=#BD7000;fontColor=#000000;" parent="1" vertex="1">
          <mxGeometry x="570" y="100" width="150" height="50" as="geometry" />
        </mxCell>
        <mxCell id="aolPlXktrZjBJs02nv2U-3" value="classification:isClassifiedBy" style="edgeStyle=orthogonalEdgeStyle;rounded=0;orthogonalLoop=1;jettySize=auto;html=1;exitX=0.75;exitY=0;exitDx=0;exitDy=0;entryX=0.76;entryY=1.095;entryDx=0;entryDy=0;entryPerimeter=0;" parent="1" source="aolPlXktrZjBJs02nv2U-4" target="aolPlXktrZjBJs02nv2U-2" edge="1">
          <mxGeometry x="-0.0526" relative="1" as="geometry">
            <mxPoint x="340" y="477" as="sourcePoint" />
            <mxPoint x="150" y="477" as="targetPoint" />
            <mxPoint as="offset" />
            <Array as="points">
              <mxPoint x="470" y="220" />
              <mxPoint x="470" y="185" />
              <mxPoint x="684" y="185" />
            </Array>
          </mxGeometry>
        </mxCell>
        <mxCell id="aolPlXktrZjBJs02nv2U-6" value="cbi:affectedBy" style="edgeStyle=orthogonalEdgeStyle;rounded=0;orthogonalLoop=1;jettySize=auto;html=1;exitX=0.5;exitY=1;exitDx=0;exitDy=0;entryX=0.5;entryY=0;entryDx=0;entryDy=0;" parent="1" source="aolPlXktrZjBJs02nv2U-4" target="bLym4JKj9HbBcu2B3I5p-3" edge="1">
          <mxGeometry relative="1" as="geometry" />
        </mxCell>
        <mxCell id="aolPlXktrZjBJs02nv2U-4" value="cbi:BiasedAgent" style="rounded=1;arcSize=10;whiteSpace=wrap;html=1;align=center;fillColor=#f0a30a;strokeColor=#BD7000;fontColor=#000000;" parent="1" vertex="1">
          <mxGeometry x="360" y="220" width="150" height="50" as="geometry" />
        </mxCell>
      </root>
    </mxGraphModel>
  </diagram>
</mxfile>
